<mxfile host="Electron" modified="2023-11-20T16:57:51.263Z" agent="Mozilla/5.0 (Windows NT 10.0; Win64; x64) AppleWebKit/537.36 (KHTML, like Gecko) draw.io/21.6.8 Chrome/114.0.5735.289 Electron/25.5.0 Safari/537.36" etag="xBhoy8k4UOmoFalBXjR4" version="21.6.8" type="device">
  <diagram name="Seite-1" id="knC7ByvoSa21lq0wT-KL">
    <mxGraphModel dx="1793" dy="750" grid="1" gridSize="10" guides="1" tooltips="1" connect="1" arrows="1" fold="1" page="1" pageScale="1" pageWidth="1169" pageHeight="827" math="0" shadow="0">
      <root>
        <mxCell id="0" />
        <mxCell id="1" parent="0" />
        <mxCell id="Z907jM7R2PpJsCE3234O-1" value="Frontend" style="swimlane;" vertex="1" parent="1">
          <mxGeometry x="20" y="20" width="510" height="510" as="geometry" />
        </mxCell>
        <mxCell id="Z907jM7R2PpJsCE3234O-4" value="NgX" style="ellipse;whiteSpace=wrap;html=1;" vertex="1" parent="Z907jM7R2PpJsCE3234O-1">
          <mxGeometry x="195" y="100" width="120" height="80" as="geometry" />
        </mxCell>
        <mxCell id="Z907jM7R2PpJsCE3234O-5" value="Website" style="ellipse;whiteSpace=wrap;html=1;" vertex="1" parent="Z907jM7R2PpJsCE3234O-1">
          <mxGeometry x="195" y="280" width="120" height="80" as="geometry" />
        </mxCell>
        <mxCell id="Z907jM7R2PpJsCE3234O-8" value="" style="endArrow=none;html=1;rounded=0;exitX=0.5;exitY=0;exitDx=0;exitDy=0;entryX=0.5;entryY=1;entryDx=0;entryDy=0;" edge="1" parent="Z907jM7R2PpJsCE3234O-1" source="Z907jM7R2PpJsCE3234O-5" target="Z907jM7R2PpJsCE3234O-4">
          <mxGeometry width="50" height="50" relative="1" as="geometry">
            <mxPoint x="540" y="290" as="sourcePoint" />
            <mxPoint x="590" y="240" as="targetPoint" />
          </mxGeometry>
        </mxCell>
        <mxCell id="Z907jM7R2PpJsCE3234O-2" value="Backend" style="swimlane;startSize=23;" vertex="1" parent="1">
          <mxGeometry x="710" y="20" width="190" height="180" as="geometry" />
        </mxCell>
        <mxCell id="Z907jM7R2PpJsCE3234O-3" value="MongoDB" style="ellipse;whiteSpace=wrap;html=1;" vertex="1" parent="1">
          <mxGeometry x="750" y="80" width="120" height="80" as="geometry" />
        </mxCell>
        <mxCell id="Z907jM7R2PpJsCE3234O-7" value="" style="shape=actor;whiteSpace=wrap;html=1;" vertex="1" parent="1">
          <mxGeometry x="790" y="350" width="40" height="60" as="geometry" />
        </mxCell>
        <mxCell id="Z907jM7R2PpJsCE3234O-9" value="" style="endArrow=classic;startArrow=classic;html=1;rounded=0;exitX=1;exitY=0;exitDx=0;exitDy=0;entryX=0;entryY=0.5;entryDx=0;entryDy=0;" edge="1" parent="1" source="Z907jM7R2PpJsCE3234O-5" target="Z907jM7R2PpJsCE3234O-3">
          <mxGeometry width="50" height="50" relative="1" as="geometry">
            <mxPoint x="560" y="310" as="sourcePoint" />
            <mxPoint x="610" y="260" as="targetPoint" />
          </mxGeometry>
        </mxCell>
        <mxCell id="Z907jM7R2PpJsCE3234O-10" value="" style="endArrow=classic;html=1;rounded=0;entryX=1;entryY=0.5;entryDx=0;entryDy=0;" edge="1" parent="1" target="Z907jM7R2PpJsCE3234O-5">
          <mxGeometry width="50" height="50" relative="1" as="geometry">
            <mxPoint x="770" y="380" as="sourcePoint" />
            <mxPoint x="610" y="260" as="targetPoint" />
          </mxGeometry>
        </mxCell>
      </root>
    </mxGraphModel>
  </diagram>
</mxfile>
